PathFileType	4	(X/Y/Z)	SUBJ94_3_walk_RCNL2025.trc
DataRate	CameraRate	NumFrames	NumMarkers	Units	OrigDataRate	OrigDataStartFrame	OrigNumFrames
100	100	12	25	mm	100	93	368
Frame#	Time	R_Shoulder			L_Shoulder			C7			J_Notch			R_Elbow			L_Elbow			R_Wrist			L_Wrist			R_Asis			L_Asis			Sacral			Thoracic			Sternum			R_Thigh_Lateral			R_Knee_Lateral			R_Shank_Lateral			R_Ankle_Lateral			R_Heel			R_Toe			L_Thigh_Lateral			L_Knee_Lateral			L_Shank_Lateral			L_Ankle_Lateral			L_Heel			L_Toe		
		X1	Y1	Z1	X2	Y2	Z2	X3	Y3	Z3	X4	Y4	Z4	X5	Y5	Z5	X6	Y6	Z6	X7	Y7	Z7	X8	Y8	Z8	X9	Y9	Z9	X10	Y10	Z10	X11	Y11	Z11	X12	Y12	Z12	X13	Y13	Z13	X14	Y14	Z14	X15	Y15	Z15	X16	Y16	Z16	X17	Y17	Z17	X18	Y18	Z18	X19	Y19	Z19	X20	Y20	Z20	X21	Y21	Z21	X22	Y22	Z22	X23	Y23	Z23	X24	Y24	Z24	X25	Y25	Z25
93	0.92000000	-1682.394165	1247.522583	401.073059	-1659.062378	1247.966553	22.148819	-1730.401245	1331.741943	204.834824	-1619.195801	1237.505249	208.229156	-1754.841553	980.303467	498.533569	-1683.567627	968.054260	-57.450066	-1687.600647	767.125732	534.156219	-1524.686035	800.095886	-72.273592	-1631.570557	860.727295	340.002930	-1622.923584	852.684448	114.511726	-1816.203857	915.555298	215.318039	-1803.747437	1132.088867	204.066833	-1591.699341	1045.223999	226.386215	-1592.514648	526.766846	413.118439	-1558.086670	444.203156	357.282593	-1555.615723	261.994415	394.086365	-1532.228760	59.260731	312.683105	-1566.718994	55.168518	257.022430	-1397.679443	57.093414	304.172241	-1737.284424	519.764648	32.780197	-1767.108154	424.093933	91.580750	-1807.519165	243.800766	37.141022	-1868.312866	51.413345	145.275604	-1910.763306	46.653141	193.861221	-1746.971558	32.090172	171.570267
94	0.93000000	-1671.343994	1245.383179	402.013580	-1646.889771	1246.628540	23.192850	-1718.731201	1330.148804	205.692139	-1607.554199	1235.646973	208.982422	-1746.397949	978.644226	498.576233	-1668.505493	967.087708	-57.782215	-1682.874023	764.686798	535.835266	-1506.630920	802.002808	-70.322716	-1618.995361	858.897522	340.077728	-1611.878418	851.053040	114.319656	-1804.572388	913.780090	216.900986	-1792.207275	1130.548584	204.672592	-1580.212524	1043.294922	226.765274	-1582.683838	523.469849	412.664062	-1546.973389	441.812744	356.565125	-1535.411377	259.689362	394.387665	-1500.489136	56.920876	313.855438	-1535.362915	50.681160	258.544373	-1365.551147	61.828735	303.869263	-1730.226196	519.141052	32.813934	-1760.817261	423.655701	91.655518	-1804.207520	243.825974	37.282486	-1867.989136	52.326290	145.464584	-1910.530762	48.104858	194.103561	-1746.722290	32.075291	171.530914
95	0.94000000	-1660.147583	1243.291870	403.048096	-1634.697754	1245.315186	24.324263	-1707.011475	1328.581421	206.655869	-1595.821655	1233.831299	209.834076	-1737.623291	977.002808	498.704590	-1653.675537	966.185242	-57.979980	-1677.724365	762.353577	537.501038	-1489.021423	803.901886	-68.315145	-1606.299072	857.102112	340.220215	-1600.683105	849.464905	114.197174	-1792.782349	912.028625	218.514038	-1780.561157	1129.019775	205.390594	-1568.594116	1041.406982	227.254745	-1572.878784	520.175415	412.277008	-1535.882080	439.391357	355.926819	-1515.902466	257.707581	394.670135	-1470.901489	55.264713	314.893311	-1506.222290	47.052536	260.032623	-1335.878418	66.538834	303.119873	-1722.838501	518.550842	32.845104	-1754.101685	423.202759	91.682068	-1800.616577	243.916656	37.368389	-1867.609619	53.395138	145.537766	-1910.281494	49.795021	194.190903	-1746.444336	32.046474	171.481903
96	0.95000000	-1648.797485	1241.280273	404.178650	-1622.492554	1244.059570	25.541821	-1695.241455	1327.068848	207.731110	-1583.997192	1232.095459	210.789459	-1728.495117	975.403320	498.924133	-1639.108398	965.367798	-58.033340	-1672.114868	760.142731	539.155426	-1471.885742	805.793243	-66.265491	-1593.483032	855.386230	340.430206	-1589.323730	847.938782	114.152100	-1780.828979	910.337219	220.132126	-1768.806030	1127.530151	206.220459	-1556.836670	1039.601318	227.858139	-1562.904175	517.026794	411.957764	-1524.721436	437.027191	355.368561	-1497.180176	256.025085	394.908600	-1443.780151	54.153297	315.751068	-1479.603394	44.188805	261.420898	-1308.920776	70.911880	301.962982	-1715.057861	517.991760	32.871059	-1746.897339	422.728485	91.651421	-1796.698120	244.089828	37.388302	-1867.143677	54.654285	145.475449	-1909.978760	51.773411	194.102280	-1746.142456	31.985617	171.431335
97	0.96000000	-1637.287476	1239.379395	405.405121	-1610.281128	1242.893433	26.842413	-1683.421387	1325.639648	208.920990	-1572.081421	1230.476318	211.851273	-1718.993896	973.869934	499.239258	-1624.833252	964.654785	-57.933266	-1666.009155	758.070709	540.799164	-1455.249756	807.675385	-64.188448	-1580.550903	853.794434	340.708069	-1577.789551	846.492615	114.193161	-1768.710938	908.740662	221.729462	-1756.940430	1126.107056	207.160522	-1544.934448	1037.918457	228.576218	-1552.582275	514.159607	411.704987	-1513.419189	434.801331	354.891876	-1479.333984	254.608002	395.082916	-1419.367310	53.440140	316.394501	-1455.738037	41.986893	262.651031	-1284.861084	74.648674	300.457123	-1706.814575	517.457581	32.887630	-1739.132935	422.224609	91.554657	-1792.401489	244.365524	37.332378	-1866.550659	56.145439	145.263382	-1909.567383	54.099068	193.825714	-1745.825073	31.872108	171.390594
98	0.97000000	-1625.612671	1237.619019	406.725006	-1598.071655	1241.846802	28.221001	-1671.552002	1324.321045	210.226303	-1560.076416	1229.009155	213.019287	-1709.103394	972.426453	499.652954	-1610.877075	964.063660	-57.672066	-1659.372070	756.153564	542.431519	-1439.136047	809.545013	-62.098511	-1567.509644	852.369629	341.054871	-1566.073486	845.142883	114.329773	-1756.431152	907.271240	223.280441	-1744.965210	1124.777100	208.207764	-1532.884521	1036.397095	229.407013	-1541.767334	511.693268	411.516815	-1501.926270	432.784027	354.499634	-1462.443481	253.416656	395.180054	-1397.818848	52.983219	316.804596	-1434.769775	40.343185	263.678894	-1263.792725	77.487503	298.675995	-1698.034058	516.938599	32.889725	-1730.732178	421.681702	91.383812	-1787.673218	244.766769	37.192696	-1865.778198	57.918053	144.894928	-1908.970825	56.839661	193.360779	-1745.503174	31.685417	171.373413
99	0.98000000	-1613.769897	1236.026733	408.133270	-1585.872803	1240.947021	29.670645	-1659.634521	1323.138672	211.645142	-1547.985962	1227.726074	214.290131	-1698.810547	971.095398	500.166809	-1597.263184	963.609131	-57.243710	-1652.169556	754.406342	544.050354	-1423.564087	811.396729	-60.009722	-1554.369263	851.151611	341.472229	-1554.173828	843.904663	114.571579	-1743.996582	905.957825	224.760559	-1732.883301	1123.565308	209.357727	-1520.687256	1035.072021	230.345749	-1530.357422	509.723297	411.392548	-1490.219116	431.032013	354.196472	-1446.570435	252.409943	395.195587	-1379.194336	52.655823	316.979736	-1416.747192	39.160843	264.478760	-1245.713989	79.226395	296.703217	-1688.637817	516.421875	32.872028	-1721.614990	421.089722	91.132843	-1782.455566	245.319199	36.964523	-1864.761230	60.029160	144.372665	-1908.091553	60.069721	192.720108	-1745.188721	31.408817	171.394119
100	0.99000000	-1601.757568	1234.627563	409.622314	-1573.693970	1240.217896	31.182571	-1647.671387	1322.115479	213.172836	-1535.815430	1226.655273	215.657166	-1688.106445	969.897644	500.780914	-1584.011353	963.303101	-56.644077	-1644.369568	752.842621	545.652008	-1408.549316	813.222870	-57.935394	-1541.143555	850.176025	341.962250	-1542.093750	842.791565	114.927872	-1731.418823	904.825195	226.147430	-1720.699829	1122.494629	210.604584	-1508.346924	1033.973633	231.384842	-1518.303711	508.315765	411.334015	-1478.300781	429.586578	353.988647	-1431.751343	251.549423	395.134125	-1363.455811	52.355053	316.935974	-1401.622192	38.355072	265.045471	-1230.529175	79.740311	294.626648	-1678.545654	515.892090	32.829819	-1711.701050	420.438965	90.798576	-1776.686035	246.050537	36.647308	-1863.422119	62.542385	143.709335	-1906.810303	63.867661	191.929993	-1744.890015	31.034061	171.465088
101	1.00000000	-1589.576294	1233.443481	411.181976	-1561.544434	1239.679321	32.746311	-1635.665161	1321.271240	214.801804	-1523.571899	1225.820312	217.110519	-1676.986328	968.851868	501.493835	-1571.136475	963.154114	-55.871212	-1635.942200	751.474365	547.231293	-1394.103516	815.013336	-55.887865	-1527.849854	849.472656	342.527100	-1529.842407	841.815491	115.406815	-1718.713867	903.893616	227.421890	-1708.422607	1121.585571	211.941086	-1495.871826	1033.126343	232.513962	-1505.613159	507.503784	411.346283	-1466.199219	428.472534	353.883820	-1417.993408	250.802490	395.008728	-1350.472778	52.007084	316.705536	-1389.256836	37.855892	265.394409	-1218.057861	78.991234	292.532898	-1667.678955	515.332764	32.759754	-1700.911987	419.721100	90.381584	-1770.296143	246.989609	36.245358	-1861.670532	65.525932	142.927826	-1904.990234	68.311478	191.029678	-1744.608032	30.566559	171.593536
102	1.01000000	-1577.228760	1232.492065	412.799744	-1549.433838	1239.346558	34.349854	-1623.619507	1320.622559	216.521698	-1511.263916	1225.238892	218.637314	-1665.449341	967.973877	502.302704	-1558.648560	963.167358	-54.925491	-1626.860657	750.311157	548.781830	-1380.234253	816.755981	-53.878313	-1514.509033	849.064453	343.168671	-1517.435059	840.986633	116.014648	-1705.901855	903.178162	228.569046	-1696.061401	1120.855469	213.358765	-1483.274780	1032.547729	233.720169	-1492.348511	507.286835	411.437988	-1453.965942	427.698425	353.890228	-1405.272827	250.144470	394.839386	-1340.035034	51.568817	316.333252	-1379.435669	37.608387	265.558655	-1208.050293	77.029869	290.501740	-1655.963867	514.727661	32.660656	-1689.174683	418.930420	89.886848	-1763.211914	248.165131	35.768082	-1859.404907	69.049362	142.060394	-1902.480835	73.473236	190.069305	-1744.329346	30.030384	171.778183
103	1.02000000	-1564.719971	1231.787231	414.461090	-1537.371704	1239.229614	35.979889	-1611.538940	1320.181885	218.319519	-1498.901855	1224.922485	220.221893	-1653.499268	967.276245	503.203247	-1546.552246	963.344177	-53.809723	-1617.101196	749.360443	550.295868	-1366.944702	818.436279	-51.916557	-1501.144653	848.966125	343.888092	-1504.892090	840.313721	116.754883	-1693.006958	902.688721	229.579208	-1683.628052	1120.318604	214.848068	-1470.572754	1032.248169	234.988098	-1478.621216	507.632629	411.620575	-1441.671753	427.257233	354.015717	-1393.537964	249.559235	394.650726	-1331.870605	51.026024	315.871674	-1371.882812	37.570816	265.584442	-1200.207764	73.988800	288.601440	-1643.336304	514.062622	32.534157	-1676.425171	418.065338	89.324188	-1755.354980	249.604248	35.229870	-1856.514526	73.179245	141.146774	-1899.124878	79.412621	189.106689	-1744.019043	29.472279	172.006195
104	1.03000000	-1552.057495	1231.337769	416.149750	-1525.367310	1239.333984	37.622074	-1599.428467	1319.957397	220.180099	-1486.497437	1224.875977	221.846313	-1641.143311	966.767700	504.189972	-1534.847046	963.682556	-52.529205	-1606.644043	748.626862	551.764740	-1354.234131	820.038116	-50.010962	-1487.783081	849.183228	344.685272	-1492.239014	839.803833	117.627518	-1680.056030	902.429871	230.448563	-1671.136475	1119.985352	216.398514	-1457.786621	1032.230469	236.300171	-1464.581421	508.481262	411.907104	-1429.402100	427.128052	354.266510	-1382.714355	249.038452	394.469238	-1325.666748	50.388611	315.375641	-1366.282959	37.711277	265.525146	-1194.204956	70.068001	286.885132	-1629.745483	513.327454	32.385201	-1662.611694	417.129730	88.708397	-1746.643433	251.330994	34.649551	-1852.881836	77.973656	140.231720	-1894.766235	86.169846	188.203262	-1743.613770	28.963680	172.251175
